<?xml version="1.0" encoding="utf-8"?>
<!-- Generator: Adobe Illustrator 25.0.0, SVG Export Plug-In . SVG Version: 6.00 Build 0)  -->
<svg version="1.1" id="Layer_1" xmlns="http://www.w3.org/2000/svg" xmlns:xlink="http://www.w3.org/1999/xlink" x="0px" y="0px"
	 viewBox="0 0 115 40" style="enable-background:new 0 0 115 40;" xml:space="preserve">
<style type="text/css">
	.st0{fill:none;stroke:#000000;stroke-width:0.5;stroke-miterlimit:2.6131;}
	.st1{fill-rule:evenodd;clip-rule:evenodd;fill:#000002;}
	.st2{fill-rule:evenodd;clip-rule:evenodd;fill:#FFFFFF;}
	.st3{fill-rule:evenodd;clip-rule:evenodd;fill:#ED1C24;}
	.st4{fill-rule:evenodd;clip-rule:evenodd;fill:#FFF200;}
	.st5{fill-rule:evenodd;clip-rule:evenodd;fill:#EC008C;}
	.st6{fill-rule:evenodd;clip-rule:evenodd;fill:#00AEEF;}
	.st7{fill-rule:evenodd;clip-rule:evenodd;fill:#A6CE39;}
	.st8{fill:none;stroke:#000000;stroke-width:0.8021;stroke-miterlimit:2.6131;}
	.st9{fill:none;stroke:#000000;stroke-width:0.802;stroke-miterlimit:2.6131;}
</style>
<rect x="0.82" y="0.91" class="st0" width="112.85" height="38.28"/>
<path class="st1" d="M7.56,15.29l0.02-6.35c9.11,3.7,16.29,5.65,21.79,4.77c3.17-0.51,4.98-4.28,8.33-3.24l-0.69-1.7l6.61,1.74
	l2.88-1.78l11.52,2.57l-0.25-0.74l7.52-1.92c6.38,2.97,13.01,3.45,18.43-0.55l4.88,3.2l14.06-2.88l4.15,3.62l-2.06,7.87l6.58,13.86
	l-9.12,1.11l-4.42,2.66l-11.04-1.29l-0.74-4.3l-0.93-0.51l-1.04,4.14l-7.22,1.92L66.18,36.4l-5.19-1.97l-0.29-1.36l-5.05,2.82
	l-8.72,1.68l-5.2-3.12l-1.01,3.06l-17.13-2.6l-3.84,2.76l-8.37-3.06l-0.72,1.35l-5.08,1.07l-0.03-2.2l-0.75-8.84l1.89-1.54
	l3.55-2.97L7.56,15.29z"/>
<path class="st2" d="M4.1,11.13l2.81-3.49c5.72,2.32,12.31,2.29,19.78-0.09l1.83,3.3l1.35-0.42l1.87-2.9l5.3,1.65l-0.69-1.7
	l6.61,1.74l2.88-1.78L57.36,10l-0.25-0.74l7.52-1.92c6.38,2.97,13.01,3.45,18.43-0.55l4.88,3.2L102,7.12l3.62,3.29l-2.48,9.46
	l5.93,12.78l-7.5,0.92l-4.42,2.66l-11.04-1.29l-0.74-4.3l-0.93-0.51l-1.04,4.14l-7.22,1.92l-10.66-1.09l-5.04-2.22l-0.44-1.11
	l-5.05,2.82l-7.73,1.55l-6-3.6l-1.21,3.67l-16.21-2.54l-3.56,2.44l-9.05-2.91l-1.53,1.67l-5.54,1.38L4.13,24.68
	C6.21,22.98,4.11,16.27,4.1,11.13"/>
<path class="st0" d="M107.5,3.53c1.38,0,2.51,1.04,2.51,2.32c0,1.27-1.13,2.31-2.52,2.31c-1.38,0-2.51-1.04-2.51-2.32
	C104.98,4.56,106.11,3.52,107.5,3.53z"/>
<path d="M106.5,5.66l0.92,0c0.19,0,0.35-0.02,0.46-0.05c0.11-0.04,0.19-0.1,0.25-0.18c0.06-0.08,0.09-0.17,0.09-0.27
	c0-0.14-0.05-0.26-0.17-0.35c-0.11-0.09-0.28-0.14-0.52-0.14l-1.02,0L106.5,5.66z M106.07,7.32l0.01-2.97l1.43,0
	c0.29,0,0.51,0.03,0.65,0.08c0.15,0.05,0.27,0.15,0.36,0.28c0.09,0.14,0.13,0.28,0.13,0.45c0,0.21-0.07,0.39-0.22,0.53
	c-0.15,0.14-0.38,0.24-0.69,0.27c0.11,0.05,0.2,0.1,0.26,0.15c0.12,0.11,0.24,0.24,0.35,0.4l0.56,0.81l-0.54,0l-0.42-0.62
	c-0.12-0.18-0.23-0.31-0.31-0.41c-0.08-0.09-0.15-0.16-0.22-0.2c-0.06-0.04-0.13-0.06-0.19-0.08C107.19,6.01,107.11,6,107,6l-0.49,0
	l0,1.32L106.07,7.32z"/>
<path class="st3" d="M5.53,11.87l2.36-2.88c5.87,2.46,12.31,2.25,19.21-0.19l1.6,3.16l-1.35,0.19l-0.06,6.4l-2.48,2.05l0.65,11.17
	l-4.64,3.03l-8.94-2.72l-1.76,1.64l-4.58,1.1L5.54,24.63l1.9-1.49l-1.9-2.28L5.53,11.87z"/>
<polygon class="st4" points="37.48,8.79 43.25,10.4 46.07,8.8 57.99,10.17 61.34,12.06 63.83,25.72 60.3,30.53 54.82,33.45 
	47.16,34.92 41.19,31.28 41.53,30.21 43.33,28.53 42.56,17.77 38.11,10.49 "/>
<path class="st5" d="M58,10.18l6.68-1.54c6.35,3.34,13.12,3.33,18-0.05l1.72,8.89l-0.18,9.63L82.66,33l-6.91,1.82l-10.11-1.11
	l-4.78-1.84l-0.56-1.34l1.31-4.37l-0.28-14.02L58,10.18z"/>
<path class="st6" d="M82.67,8.59l4.6,2.99l13.94-2.7l2.67,2.6l-2.2,8.59l5.53,11.38l-7.24,1.1l-3.76,2.37l-10.16-1.15l-0.55-3.81
	l-1.72-1.06l0.43-1.87c-0.84-1.15-1.31-2.42-2.16-3.57l2.35-6L82.67,8.59z"/>
<polygon class="st7" points="27.35,12.16 30.44,11.54 32.19,8.99 38.11,10.49 41.86,12.53 42.56,17.77 43.33,28.53 41.53,30.21 
	40.02,34.99 25.08,32.78 25.4,31.76 24.81,20.6 27.29,18.55 "/>
<path class="st1" d="M89.94,25.04l1.38,0.2c0,0,5.93-5.79,5.87-5.81c-0.06-0.02-0.39-0.4-0.39-0.4l-5.56,5.54l-0.98,0L89.94,25.04z"
	/>
<path class="st1" d="M100.52,25.04l-1.38,0.2c0,0-6.03-5.88-5.97-5.91c0.06-0.02,0.39-0.4,0.39-0.4l5.66,5.64l0.98,0L100.52,25.04z"
	/>
<polygon class="st1" points="95.94,16.01 95.56,16.46 100.31,16.67 100.55,16.43 100.83,16 "/>
<path class="st1" d="M100.83,16l-0.01,2.95l-0.27,0.64c0,0-0.17-2.93-0.25-2.93c-0.03,0,0.11-0.08,0.22-0.22
	c0.05-0.06,0.02-0.16,0.06-0.23C100.68,16.09,100.83,16,100.83,16"/>
<polygon class="st1" points="90.19,16.01 89.89,16.42 94.56,16.67 94.8,16.44 95.08,16.01 "/>
<path class="st1" d="M95.08,16.01l-0.01,2.95l-0.27,0.64c0,0-0.17-2.93-0.25-2.93c-0.03,0,0.11-0.08,0.22-0.22
	c0.05-0.06,0.02-0.16,0.06-0.23C94.93,16.09,95.08,16.01,95.08,16.01"/>
<polygon class="st2" points="90.03,16.56 94.67,16.56 94.67,19.46 93.36,19.45 95.19,21.38 97.09,19.44 95.7,19.45 95.7,16.59 
	100.4,16.55 100.42,19.45 99.1,19.45 96.29,22.3 96.19,22.4 99.1,25.16 100.38,25.18 100.39,28.21 95.76,28.21 95.76,25.18 
	97.03,25.16 95.22,23.26 93.32,25.15 94.68,25.14 94.69,28.2 90.06,28.22 90.05,25.16 91.32,25.15 94.2,22.23 91.4,19.46 
	90.02,19.46 "/>
<polygon class="st8" points="90.03,16.56 94.67,16.56 94.67,19.46 93.36,19.45 95.19,21.38 97.09,19.44 95.7,19.45 95.7,16.59 
	100.4,16.55 100.42,19.45 99.1,19.45 96.29,22.3 96.19,22.4 99.1,25.16 100.38,25.18 100.39,28.21 95.76,28.21 95.76,25.18 
	97.03,25.16 95.22,23.26 93.32,25.15 94.68,25.14 94.69,28.2 90.06,28.22 90.05,25.16 91.32,25.15 94.2,22.23 91.4,19.46 
	90.02,19.46 "/>
<polygon class="st2" points="11.46,16.54 16.1,16.54 16.11,19.43 14.83,19.43 14.83,21.49 18.04,19.44 17.42,19.43 17.42,16.54 
	21.28,16.54 21.28,19.44 20.41,19.43 17.27,21.64 20.52,25.14 21.28,25.14 21.28,28.18 17.42,28.18 17.42,25.14 18.59,25.14 
	16.18,22.47 14.83,23.44 14.83,25.14 16.1,25.14 16.11,28.18 11.49,28.18 11.48,25.14 12.8,25.14 12.84,19.44 11.46,19.44 "/>
<polygon class="st8" points="11.46,16.54 16.1,16.54 16.11,19.43 14.83,19.43 14.83,21.49 18.04,19.44 17.42,19.43 17.42,16.54 
	21.28,16.54 21.28,19.44 20.41,19.43 17.27,21.64 20.52,25.14 21.28,25.14 21.28,28.18 17.42,28.18 17.42,25.14 18.59,25.14 
	16.18,22.47 14.83,23.44 14.83,25.14 16.1,25.14 16.11,28.18 11.49,28.18 11.48,25.14 12.8,25.14 12.84,19.44 11.46,19.44 "/>
<polygon class="st2" points="32.57,16.55 37.21,16.55 37.21,19.45 35.94,19.45 35.94,25.16 37.21,25.16 37.22,28.19 32.59,28.2 
	32.59,25.16 33.91,25.15 33.94,19.45 32.57,19.45 "/>
<polygon class="st8" points="32.57,16.55 37.21,16.55 37.21,19.45 35.94,19.45 35.94,25.16 37.21,25.16 37.22,28.19 32.59,28.2 
	32.59,25.16 33.91,25.15 33.94,19.45 32.57,19.45 "/>
<polygon class="st2" points="68,16.54 77.87,16.54 77.85,21.02 75.86,21.03 75.86,19.43 71.37,19.43 71.37,21.23 73.55,21.24 
	73.57,23.77 71.37,23.75 71.37,25.14 75.86,25.14 75.85,23.22 77.84,23.21 77.85,28.18 68.02,28.18 68.02,25.14 69.33,25.14 
	69.37,19.44 67.99,19.44 "/>
<polygon class="st8" points="68,16.54 77.87,16.54 77.85,21.02 75.86,21.03 75.86,19.43 71.37,19.43 71.37,21.23 73.55,21.24 
	73.57,23.77 71.37,23.75 71.37,25.14 75.86,25.14 75.85,23.22 77.84,23.21 77.85,28.18 68.02,28.18 68.02,25.14 69.33,25.14 
	69.37,19.44 67.99,19.44 "/>
<polygon class="st2" points="11.46,16.54 16.1,16.54 16.11,19.43 14.83,19.43 14.83,21.49 18.04,19.44 17.42,19.43 17.42,16.54 
	21.28,16.54 21.28,19.44 20.41,19.43 17.27,21.64 20.52,25.14 21.28,25.14 21.28,28.18 17.42,28.18 17.42,25.14 18.59,25.14 
	16.18,22.47 14.83,23.44 14.83,25.14 16.1,25.14 16.11,28.18 11.49,28.18 11.48,25.14 12.8,25.14 12.84,19.44 11.46,19.44 "/>
<polygon class="st8" points="11.46,16.54 16.1,16.54 16.11,19.43 14.83,19.43 14.83,21.49 18.04,19.44 17.42,19.43 17.42,16.54 
	21.28,16.54 21.28,19.44 20.41,19.43 17.27,21.64 20.52,25.14 21.28,25.14 21.28,28.18 17.42,28.18 17.42,25.14 18.59,25.14 
	16.18,22.47 14.83,23.44 14.83,25.14 16.1,25.14 16.11,28.18 11.49,28.18 11.48,25.14 12.8,25.14 12.84,19.44 11.46,19.44 "/>
<polygon class="st2" points="32.57,16.55 37.21,16.55 37.21,19.45 35.94,19.45 35.94,25.16 37.21,25.16 37.22,28.19 32.59,28.2 
	32.59,25.16 33.91,25.15 33.94,19.45 32.57,19.45 "/>
<polygon class="st8" points="32.57,16.55 37.21,16.55 37.21,19.45 35.94,19.45 35.94,25.16 37.21,25.16 37.22,28.19 32.59,28.2 
	32.59,25.16 33.91,25.15 33.94,19.45 32.57,19.45 "/>
<polygon class="st2" points="68,16.54 77.87,16.54 77.85,21.02 75.86,21.03 75.86,19.43 71.37,19.43 71.37,21.23 73.55,21.24 
	73.57,23.77 71.37,23.75 71.37,25.14 75.86,25.14 75.85,23.22 77.84,23.21 77.85,28.18 68.02,28.18 68.02,25.14 69.33,25.14 
	69.37,19.44 67.99,19.44 "/>
<polygon class="st8" points="68,16.54 77.87,16.54 77.85,21.02 75.86,21.03 75.86,19.43 71.37,19.43 71.37,21.23 73.55,21.24 
	73.57,23.77 71.37,23.75 71.37,25.14 75.86,25.14 75.85,23.22 77.84,23.21 77.85,28.18 68.02,28.18 68.02,25.14 69.33,25.14 
	69.37,19.44 67.99,19.44 "/>
<path class="st1" d="M18.11,18.75c0.04,0.06-3.28,2.17-3.28,2.17v0.57l3.71-2.34L18.11,18.75z"/>
<polygon class="st1" points="17.59,15.76 17.1,16.41 21.77,16.54 21.91,19.56 22.22,18.66 22.22,15.77 "/>
<path class="st1" d="M16.82,21.85c0.1-0.05,1.3-0.75,1.3-0.75l2.81,3.22l1.29,0.01l-0.37,0.83l-1.17-0.06L16.82,21.85z"/>
<polygon class="st1" points="21.87,28.32 22.22,27.45 22.22,24.33 21.85,25.17 "/>
<polygon class="st1" points="18.65,24.34 17.55,24.33 17.16,25.01 19.08,25.17 "/>
<path class="st1" d="M14.41,23.78c0.07-0.07,0.85-0.65,0.85-0.65l0,1.21l1.36,0l-0.52,0.83l-1.22,0L14.41,23.78z"/>
<path class="st1" d="M16.23,28.32c0,0-0.06-3.15-0.13-3.15c-0.07,0,0.52-0.83,0.52-0.83l0.01,3.33L16.23,28.32z"/>
<polygon class="st1" points="11.81,24.33 11.35,25.01 12.8,25.14 12.8,24.33 "/>
<polygon class="st1" points="11.79,15.74 11.32,16.4 16.1,16.54 16.63,15.76 "/>
<polygon class="st1" points="16.24,19.57 16.08,16.5 16.63,15.77 16.63,18.77 "/>
<polygon class="st2" points="11.46,16.54 16.1,16.54 16.1,19.43 14.83,19.43 14.83,20.92 14.83,21.49 18.04,19.44 17.24,19.43 
	17.24,16.69 17.24,16.54 21.77,16.54 21.77,19.44 20.52,19.51 17.38,21.54 20.57,25.08 21.73,25.14 21.73,28.18 17.28,28.18 
	17.28,25.14 18.59,25.14 16.18,22.47 14.83,23.44 14.83,25.14 16.1,25.14 16.11,28.18 11.48,28.18 11.48,25.14 12.8,25.14 
	12.83,19.44 11.46,19.44 "/>
<polygon class="st8" points="11.46,16.54 16.1,16.54 16.1,19.43 14.83,19.43 14.83,20.92 14.83,21.49 18.04,19.44 17.24,19.43 
	17.24,16.69 17.24,16.54 21.77,16.54 21.77,19.44 20.52,19.51 17.38,21.54 20.57,25.08 21.73,25.14 21.73,28.18 17.28,28.18 
	17.28,25.14 18.59,25.14 16.18,22.47 14.83,23.44 14.83,25.14 16.1,25.14 16.11,28.18 11.48,28.18 11.48,25.14 12.8,25.14 
	12.83,19.44 11.46,19.44 "/>
<polygon class="st1" points="32.87,15.83 37.6,15.84 37.25,16.5 32.45,16.44 "/>
<polygon class="st1" points="37.29,19.69 37.61,18.55 37.6,15.84 37.25,16.5 "/>
<path class="st1" d="M36.26,18.95v5.49l-0.46,0.91c0,0-0.57,0.04-0.62-0.12c-0.05-0.16,0.05-5.84,0.1-5.89
	C35.33,19.29,36.26,18.95,36.26,18.95"/>
<polygon class="st1" points="34.93,24.4 37.61,24.4 37.29,25.23 34.99,25.57 "/>
<polygon class="st1" points="34.34,24.4 32.91,24.4 32.45,25.02 34.23,25.14 "/>
<polygon class="st1" points="37.36,28.33 37.61,27.34 37.61,24.4 37.35,25.02 37.2,25.35 37.17,27.94 "/>
<polygon class="st2" points="32.57,16.55 37.16,16.55 37.17,19.54 35.94,19.54 35.94,25.16 37.21,25.16 37.22,28.19 32.59,28.2 
	32.59,25.16 33.91,25.15 33.94,19.54 32.57,19.54 "/>
<polygon class="st8" points="32.57,16.55 37.16,16.55 37.17,19.54 35.94,19.54 35.94,25.16 37.21,25.16 37.22,28.19 32.59,28.2 
	32.59,25.16 33.91,25.15 33.94,19.54 32.57,19.54 "/>
<rect x="53.07" y="19.21" class="st1" width="0.78" height="5.67"/>
<polygon class="st1" points="47.7,15.95 47.39,16.54 57.41,16.77 57.68,15.94 "/>
<polygon class="st1" points="57.5,21.3 57.41,16.65 57.68,15.94 57.78,20.2 "/>
<polygon class="st1" points="50.39,24.51 55.11,24.51 54.69,25.33 50.04,25.1 "/>
<polygon class="st1" points="54.79,28.38 54.66,25.39 55.11,24.51 55.11,27.63 "/>
<path class="st2" d="M47.52,16.67l9.82,0c0,1.5,0.02,2.99,0.02,4.48h-1.98v-1.57l-0.27,0.01l-0.78,0l-0.95,0v5.63h1.29v3h-4.49v-3
	h1.22V19.6l-0.2,0l-1.43-0.01l-0.29,0v1.57H47.5v-1.59h0.01L47.52,16.67z"/>
<path class="st9" d="M47.52,16.67l9.82,0c0,1.5,0.02,2.99,0.02,4.48h-1.98v-1.57l-0.27,0.01l-0.78,0l-0.95,0v5.63h1.29v3h-4.49v-3
	h1.22V19.6l-0.2,0l-1.43-0.01l-0.29,0v1.57H47.5v-1.59h0.01L47.52,16.67z"/>
<polygon class="st1" points="67.67,16.46 68.13,15.89 78.02,15.9 77.79,16.5 "/>
<polygon class="st1" points="77.8,21.18 77.71,16.56 78.03,15.88 78.03,20.11 "/>
<polygon class="st1" points="71.68,19.42 71.68,20.66 71.24,21.33 71.28,19.42 "/>
<polygon class="st1" points="70.72,20.93 71.54,20.58 73.83,20.58 73.37,21.24 70.75,21.24 "/>
<path class="st1" d="M73.03,20.72c0,0,0.34,0.44,0.34,0.53c0,0.09,0.01,2.56,0.01,2.56l0.05,0.13l0.42-1.19l-0.02-2.15L73.03,20.72z
	"/>
<polygon class="st1" points="71.64,23.47 71.64,24.46 75.7,24.46 75.7,25.19 71.31,25.19 71.26,23.32 "/>
<polygon class="st1" points="76.25,22.18 75.53,23.29 77.76,23.37 78.11,22.18 "/>
<polygon class="st1" points="77.8,28.32 76.95,27.07 77.58,23.42 78.11,22.18 78.13,27.14 "/>
<polygon class="st1" points="69.3,24.46 68.09,24.46 67.69,25.02 69.37,25.16 "/>
<polygon class="st2" points="67.81,16.55 77.68,16.56 77.66,21.04 75.67,21.04 75.67,19.45 71.31,19.45 71.31,21.25 73.27,21.25 
	73.29,23.78 71.31,23.77 71.31,25.16 75.67,25.16 75.67,23.42 77.65,23.41 77.66,28.19 67.83,28.2 67.83,25.16 69.37,25.16 
	69.41,19.45 67.81,19.45 "/>
<polygon class="st8" points="67.81,16.55 77.68,16.56 77.66,21.04 75.67,21.04 75.67,19.45 71.31,19.45 71.31,21.25 73.27,21.25 
	73.29,23.78 71.31,23.77 71.31,25.16 75.67,25.16 75.67,23.42 77.65,23.41 77.66,28.19 67.83,28.2 67.83,25.16 69.37,25.16 
	69.41,19.45 67.81,19.45 "/>
</svg>
